<svg  viewBox="0 0 56 56" fill="none" xmlns="http://www.w3.org/2000/svg">
<path d="M55.8432 16.4548C55.7088 13.4732 55.2271 11.4331 54.5437 9.65092C53.8268 7.81265 52.8746 6.24339 51.3175 4.69656C49.7604 3.14972 48.2033 2.17454 46.3661 1.46837C44.5849 0.773419 42.5461 0.302642 39.5663 0.168135C36.5753 0.0336269 35.6231 0 28.028 0C20.4217 0 19.4695 0.0336269 16.4897 0.168135C13.5099 0.302642 11.4711 0.784628 9.68994 1.46837C7.84157 2.18575 6.27326 3.13851 4.72735 4.69656C3.18144 6.2546 2.20685 7.81265 1.50111 9.65092C0.817769 11.4331 0.336073 13.4732 0.201646 16.4548C0.0672189 19.4476 0.0336122 20.4003 0.0336122 28C0.0336122 35.6109 0.0672189 36.5637 0.201646 39.5452C0.336073 42.5268 0.817769 44.5669 1.50111 46.3491C2.21805 48.1874 3.17024 49.7566 4.72735 51.3034C6.27326 52.8615 7.84157 53.8255 9.67874 54.5316C11.4599 55.2266 13.4987 55.6974 16.4785 55.8319C19.4695 55.9664 20.4217 56 28.0168 56C35.6231 56 36.5753 55.9664 39.5551 55.8319C42.5349 55.6974 44.5737 55.2154 46.3549 54.5316C48.192 53.8143 49.7604 52.8615 51.3063 51.3034C52.8522 49.7454 53.8268 48.1874 54.5325 46.3491C55.2271 44.5669 55.6975 42.5268 55.832 39.5452C55.9664 36.5524 56 35.5997 56 28C56 20.4003 55.9776 19.4363 55.8432 16.4548ZM50.8134 39.3211C50.6901 42.056 50.2309 43.5468 49.85 44.522C49.3459 45.8223 48.7298 46.7638 47.744 47.7502C46.7582 48.7366 45.8284 49.3307 44.5177 49.8575C43.5319 50.2386 42.042 50.6982 39.3199 50.8215C36.3737 50.956 35.4887 50.9896 28.0056 50.9896C20.5225 50.9896 19.6375 50.956 16.6913 50.8215C13.958 50.6982 12.4681 50.2386 11.4935 49.8575C10.194 49.3531 9.25306 48.7366 8.26726 47.7502C7.28146 46.7638 6.68774 45.8335 6.16124 44.522C5.78036 43.5356 5.32107 42.0448 5.19785 39.3211C5.06342 36.3731 5.02981 35.4876 5.02981 28C5.02981 20.5124 5.06342 19.6269 5.19785 16.6789C5.32107 13.944 5.78036 12.4532 6.16124 11.478C6.66534 10.1777 7.28146 9.23619 8.26726 8.2498C9.25306 7.26341 10.1828 6.66934 11.4935 6.14251C12.4793 5.76141 13.9692 5.30184 16.6913 5.17854C19.6375 5.04404 20.5225 5.01041 28.0056 5.01041C35.4887 5.01041 36.3737 5.04404 39.3199 5.17854C42.0532 5.30184 43.5431 5.76141 44.5177 6.14251C45.8172 6.64692 46.7582 7.26341 47.744 8.2498C48.7298 9.23619 49.3235 10.1665 49.85 11.478C50.2309 12.4644 50.6901 13.9552 50.8134 16.6789C50.9478 19.6269 50.9814 20.5124 50.9814 28C50.9814 35.4876 50.9366 36.3731 50.8134 39.3211Z" fill="#222529"/>
<path d="M28.0057 13.6077C20.0521 13.6077 13.622 20.0528 13.622 28C13.622 35.9584 20.0633 42.3923 28.0057 42.3923C35.9481 42.3923 42.3894 35.936 42.3894 28C42.3894 20.0416 35.9593 13.6077 28.0057 13.6077ZM28.0057 37.3371C22.8527 37.3371 18.6742 33.1561 18.6742 28C18.6742 22.8439 22.8527 18.6629 28.0057 18.6629C33.1587 18.6629 37.3372 22.8439 37.3372 28C37.3372 33.1561 33.1587 37.3371 28.0057 37.3371Z" fill="#222529"/>
<path d="M42.9494 16.4099C44.8055 16.4099 46.3101 14.9044 46.3101 13.0472C46.3101 11.1901 44.8055 9.68455 42.9494 9.68455C41.0934 9.68455 39.5888 11.1901 39.5888 13.0472C39.5888 14.9044 41.0934 16.4099 42.9494 16.4099Z" fill="#222529"/>
<path d="M0 28C0 35.6109 0.0336067 36.5637 0.168034 39.5452C0.302461 42.5268 0.784157 44.5669 1.46749 46.3491C2.18444 48.1874 3.13663 49.7566 4.69374 51.3034C6.23965 52.8503 7.80796 53.8255 9.64513 54.5316C11.4263 55.2266 13.4651 55.6974 16.4449 55.8319C19.4359 55.9664 20.3881 56 27.9832 56C35.5895 56 36.5417 55.9664 39.5215 55.8319C42.5013 55.6974 44.5401 55.2154 46.3213 54.5316C48.1584 53.8143 49.7267 52.8615 51.2727 51.3034C52.8186 49.7566 53.7932 48.1874 54.4989 46.3491C55.1934 44.5669 55.6639 42.5268 55.7984 39.5452C55.9328 36.5524 55.9664 35.5997 55.9664 28C55.9664 20.3891 55.9328 19.4363 55.7984 16.4548C55.6639 13.4732 55.1822 11.4331 54.4989 9.65092C53.782 7.81265 52.8298 6.24339 51.2727 4.69656C49.738 3.13851 48.1696 2.17454 46.3325 1.46837C44.5513 0.773419 42.5125 0.302642 39.5327 0.168135C36.5417 0.0336269 35.5895 0 27.9944 0C20.3881 0 19.4359 0.0336269 16.4561 0.168135C13.4763 0.302642 11.4375 0.784628 9.65633 1.46837C7.81916 2.18575 6.25085 3.13851 4.70494 4.69656C3.15903 6.2546 2.18444 7.81265 1.4787 9.65092C0.784157 11.4331 0.302461 13.4732 0.168034 16.4548C0.0336067 19.4363 0 20.3891 0 28ZM5.05221 28C5.05221 20.5236 5.08582 19.6269 5.22024 16.6789C5.34347 13.944 5.80276 12.4532 6.18364 11.478C6.68774 10.1777 7.30386 9.23619 8.28966 8.2498C9.27546 7.26341 10.2052 6.66934 11.5159 6.14251C12.5017 5.76141 13.9916 5.30184 16.7137 5.17854C19.6599 5.04404 20.5449 5.01041 28.028 5.01041C35.5111 5.01041 36.3961 5.04404 39.3423 5.17854C42.0756 5.30184 43.5655 5.76141 44.5401 6.14251C45.8396 6.64692 46.7806 7.26341 47.7664 8.2498C48.7522 9.23619 49.3459 10.1665 49.8724 11.478C50.2533 12.4644 50.7125 13.9552 50.8358 16.6789C50.9702 19.6269 51.0038 20.5124 51.0038 28C51.0038 35.4876 50.9702 36.3731 50.8358 39.3211C50.7125 42.056 50.2533 43.5468 49.8724 44.522C49.3683 45.8223 48.7522 46.7638 47.7664 47.7502C46.7806 48.7366 45.8508 49.3307 44.5401 49.8575C43.5543 50.2386 42.0644 50.6982 39.3423 50.8215C36.3961 50.956 35.5111 50.9896 28.028 50.9896C20.5449 50.9896 19.6599 50.956 16.7137 50.8215C13.9804 50.6982 12.4905 50.2386 11.5159 49.8575C10.2164 49.3531 9.27546 48.7366 8.28966 47.7502C7.30386 46.7638 6.71014 45.8335 6.18364 44.522C5.80276 43.5356 5.34347 42.0448 5.22024 39.3211C5.07462 36.3731 5.05221 35.4764 5.05221 28Z" fill="#222529"/>
</svg>
