<svg  viewBox="0 0 56 40" fill="none" xmlns="http://www.w3.org/2000/svg">
<path d="M54.8466 6.13506C54.2008 3.73639 52.3095 1.84513 49.9108 1.19934C45.5286 0 27.9999 0 27.9999 0C27.9999 0 10.4711 0 6.08894 1.15321C3.73639 1.799 1.799 3.73639 1.15321 6.13506C0 10.5173 0 19.6045 0 19.6045C0 19.6045 0 28.7379 1.15321 33.074C1.799 35.4727 3.69026 37.3639 6.08894 38.0097C10.5173 39.2091 27.9999 39.2091 27.9999 39.2091C27.9999 39.2091 45.5286 39.2091 49.9108 38.0559C52.3095 37.4101 54.2008 35.5188 54.8466 33.1201C55.9998 28.7379 55.9998 19.6507 55.9998 19.6507C55.9998 19.6507 56.0459 10.5173 54.8466 6.13506Z" fill="#222529"/>
<path d="M22.4184 27.9999L36.9949 19.6045L22.4184 11.2092V27.9999Z" fill="white"/>
</svg>
