<svg width="206" height="44" viewBox="0 0 206 44" fill="none" xmlns="http://www.w3.org/2000/svg">
<path d="M67.117 27.336C65.5676 27.336 64.1396 27.0933 62.833 26.608C61.545 26.104 60.4156 25.3947 59.445 24.48C58.493 23.5653 57.7463 22.492 57.205 21.26C56.6823 20.028 56.421 18.6747 56.421 17.2C56.421 15.7253 56.6823 14.372 57.205 13.14C57.7463 11.908 58.5023 10.8347 59.473 9.92C60.4436 9.00533 61.5823 8.30533 62.889 7.82C64.1956 7.316 65.633 7.064 67.201 7.064C68.937 7.064 70.4956 7.35333 71.877 7.932C73.277 8.51067 74.453 9.35067 75.405 10.452L72.493 13.14C71.7836 12.3933 71.009 11.8427 70.169 11.488C69.329 11.1147 68.4143 10.928 67.425 10.928C66.473 10.928 65.605 11.0773 64.821 11.376C64.037 11.6747 63.3556 12.104 62.777 12.664C62.217 13.224 61.7783 13.8867 61.461 14.652C61.1623 15.4173 61.013 16.2667 61.013 17.2C61.013 18.1147 61.1623 18.9547 61.461 19.72C61.7783 20.4853 62.217 21.1573 62.777 21.736C63.3556 22.296 64.0276 22.7253 64.793 23.024C65.577 23.3227 66.4356 23.472 67.369 23.472C68.265 23.472 69.133 23.332 69.973 23.052C70.8316 22.7533 71.6623 22.2587 72.465 21.568L75.041 24.844C73.977 25.6467 72.7356 26.2627 71.317 26.692C69.917 27.1213 68.517 27.336 67.117 27.336ZM70.897 24.256V16.892H75.041V24.844L70.897 24.256ZM78.9465 27V6.224H83.3145V27H78.9465ZM94.5364 27.224C92.9311 27.224 91.5031 26.888 90.2524 26.216C89.0204 25.544 88.0404 24.6293 87.3124 23.472C86.6031 22.296 86.2484 20.9613 86.2484 19.468C86.2484 17.956 86.6031 16.6213 87.3124 15.464C88.0404 14.288 89.0204 13.3733 90.2524 12.72C91.5031 12.048 92.9311 11.712 94.5364 11.712C96.1231 11.712 97.5418 12.048 98.7924 12.72C100.043 13.3733 101.023 14.2787 101.732 15.436C102.442 16.5933 102.796 17.9373 102.796 19.468C102.796 20.9613 102.442 22.296 101.732 23.472C101.023 24.6293 100.043 25.544 98.7924 26.216C97.5418 26.888 96.1231 27.224 94.5364 27.224ZM94.5364 23.64C95.2644 23.64 95.9178 23.472 96.4964 23.136C97.0751 22.8 97.5324 22.324 97.8684 21.708C98.2044 21.0733 98.3724 20.3267 98.3724 19.468C98.3724 18.5907 98.2044 17.844 97.8684 17.228C97.5324 16.612 97.0751 16.136 96.4964 15.8C95.9178 15.464 95.2644 15.296 94.5364 15.296C93.8084 15.296 93.1551 15.464 92.5764 15.8C91.9978 16.136 91.5311 16.612 91.1764 17.228C90.8404 17.844 90.6724 18.5907 90.6724 19.468C90.6724 20.3267 90.8404 21.0733 91.1764 21.708C91.5311 22.324 91.9978 22.8 92.5764 23.136C93.1551 23.472 93.8084 23.64 94.5364 23.64ZM114.62 27.224C113.295 27.224 112.156 26.944 111.204 26.384C110.252 25.824 109.524 24.9747 109.02 23.836C108.516 22.6787 108.264 21.2227 108.264 19.468C108.264 17.6947 108.525 16.2387 109.048 15.1C109.589 13.9613 110.336 13.112 111.288 12.552C112.24 11.992 113.351 11.712 114.62 11.712C116.039 11.712 117.308 12.0293 118.428 12.664C119.567 13.2987 120.463 14.1947 121.116 15.352C121.788 16.5093 122.124 17.8813 122.124 19.468C122.124 21.036 121.788 22.3987 121.116 23.556C120.463 24.7133 119.567 25.6187 118.428 26.272C117.308 26.9067 116.039 27.224 114.62 27.224ZM105.716 27V6.224H110.084V14.988L109.804 19.44L109.888 23.92V27H105.716ZM113.864 23.64C114.592 23.64 115.236 23.472 115.796 23.136C116.375 22.8 116.832 22.324 117.168 21.708C117.523 21.0733 117.7 20.3267 117.7 19.468C117.7 18.5907 117.523 17.844 117.168 17.228C116.832 16.612 116.375 16.136 115.796 15.8C115.236 15.464 114.592 15.296 113.864 15.296C113.136 15.296 112.483 15.464 111.904 15.8C111.325 16.136 110.868 16.612 110.532 17.228C110.196 17.844 110.028 18.5907 110.028 19.468C110.028 20.3267 110.196 21.0733 110.532 21.708C110.868 22.324 111.325 22.8 111.904 23.136C112.483 23.472 113.136 23.64 113.864 23.64ZM130.116 27.224C128.828 27.224 127.587 27.0747 126.392 26.776C125.216 26.4587 124.283 26.0667 123.592 25.6L125.048 22.464C125.739 22.8933 126.551 23.248 127.484 23.528C128.436 23.7893 129.369 23.92 130.284 23.92C131.292 23.92 132.001 23.7987 132.412 23.556C132.841 23.3133 133.056 22.9773 133.056 22.548C133.056 22.1933 132.888 21.932 132.552 21.764C132.235 21.5773 131.805 21.4373 131.264 21.344C130.723 21.2507 130.125 21.1573 129.472 21.064C128.837 20.9707 128.193 20.8493 127.54 20.7C126.887 20.532 126.289 20.2893 125.748 19.972C125.207 19.6547 124.768 19.2253 124.432 18.684C124.115 18.1427 123.956 17.4427 123.956 16.584C123.956 15.632 124.227 14.792 124.768 14.064C125.328 13.336 126.131 12.7667 127.176 12.356C128.221 11.9267 129.472 11.712 130.928 11.712C131.955 11.712 133 11.824 134.064 12.048C135.128 12.272 136.015 12.5987 136.724 13.028L135.268 16.136C134.54 15.7067 133.803 15.4173 133.056 15.268C132.328 15.1 131.619 15.016 130.928 15.016C129.957 15.016 129.248 15.1467 128.8 15.408C128.352 15.6693 128.128 16.0053 128.128 16.416C128.128 16.7893 128.287 17.0693 128.604 17.256C128.94 17.4427 129.379 17.592 129.92 17.704C130.461 17.816 131.049 17.9187 131.684 18.012C132.337 18.0867 132.991 18.208 133.644 18.376C134.297 18.544 134.885 18.7867 135.408 19.104C135.949 19.4027 136.388 19.8227 136.724 20.364C137.06 20.8867 137.228 21.5773 137.228 22.436C137.228 23.3693 136.948 24.2 136.388 24.928C135.828 25.6373 135.016 26.1973 133.952 26.608C132.907 27.0187 131.628 27.224 130.116 27.224ZM146.083 27.224C144.31 27.224 142.928 26.776 141.939 25.88C140.95 24.9653 140.455 23.612 140.455 21.82V8.604H144.823V21.764C144.823 22.3987 144.991 22.8933 145.327 23.248C145.663 23.584 146.12 23.752 146.699 23.752C147.39 23.752 147.978 23.5653 148.463 23.192L149.639 26.272C149.191 26.5893 148.65 26.832 148.015 27C147.399 27.1493 146.755 27.224 146.083 27.224ZM138.131 15.632V12.272H148.575V15.632H138.131ZM158.447 27.224C157.196 27.224 156.076 26.9813 155.087 26.496C154.116 26.0107 153.36 25.2733 152.819 24.284C152.278 23.276 152.007 21.9973 152.007 20.448V11.936H156.375V19.804C156.375 21.0547 156.636 21.9787 157.159 22.576C157.7 23.1547 158.456 23.444 159.427 23.444C160.099 23.444 160.696 23.304 161.219 23.024C161.742 22.7253 162.152 22.2773 162.451 21.68C162.75 21.064 162.899 20.2987 162.899 19.384V11.936H167.267V27H163.123V22.856L163.879 24.06C163.375 25.1053 162.628 25.8987 161.639 26.44C160.668 26.9627 159.604 27.224 158.447 27.224ZM177.782 27.224C176.363 27.224 175.084 26.9067 173.946 26.272C172.807 25.6187 171.902 24.7133 171.23 23.556C170.576 22.3987 170.25 21.036 170.25 19.468C170.25 17.8813 170.576 16.5093 171.23 15.352C171.902 14.1947 172.807 13.2987 173.946 12.664C175.084 12.0293 176.363 11.712 177.782 11.712C179.051 11.712 180.162 11.992 181.114 12.552C182.066 13.112 182.803 13.9613 183.326 15.1C183.848 16.2387 184.11 17.6947 184.11 19.468C184.11 21.2227 183.858 22.6787 183.354 23.836C182.85 24.9747 182.122 25.824 181.17 26.384C180.236 26.944 179.107 27.224 177.782 27.224ZM178.538 23.64C179.247 23.64 179.891 23.472 180.47 23.136C181.048 22.8 181.506 22.324 181.842 21.708C182.196 21.0733 182.374 20.3267 182.374 19.468C182.374 18.5907 182.196 17.844 181.842 17.228C181.506 16.612 181.048 16.136 180.47 15.8C179.891 15.464 179.247 15.296 178.538 15.296C177.81 15.296 177.156 15.464 176.578 15.8C175.999 16.136 175.532 16.612 175.178 17.228C174.842 17.844 174.674 18.5907 174.674 19.468C174.674 20.3267 174.842 21.0733 175.178 21.708C175.532 22.324 175.999 22.8 176.578 23.136C177.156 23.472 177.81 23.64 178.538 23.64ZM182.486 27V23.92L182.57 19.44L182.29 14.988V6.224H186.658V27H182.486ZM192.604 32.656C191.82 32.656 191.046 32.5347 190.28 32.292C189.515 32.0493 188.89 31.7133 188.404 31.284L190 28.176C190.336 28.4747 190.719 28.708 191.148 28.876C191.596 29.044 192.035 29.128 192.464 29.128C193.08 29.128 193.566 28.9787 193.92 28.68C194.294 28.4 194.63 27.924 194.928 27.252L195.712 25.404L196.048 24.928L201.452 11.936H205.652L198.848 27.924C198.363 29.1373 197.803 30.0893 197.168 30.78C196.552 31.4707 195.862 31.956 195.096 32.236C194.35 32.516 193.519 32.656 192.604 32.656ZM195.18 27.588L188.46 11.936H192.968L198.176 24.536L195.18 27.588Z" fill="#222529"/>
<path d="M66.2732 31.9H65.5842L62.2952 37.256L59.0062 31.9H58.2782L61.9442 37.867V41H62.6072V37.867L66.2732 31.9ZM69.9838 41.052C71.9338 41.052 73.3768 39.622 73.3768 37.607C73.3768 35.592 71.9338 34.162 69.9838 34.162C68.0338 34.162 66.5908 35.592 66.5908 37.607C66.5908 39.622 68.0338 41.052 69.9838 41.052ZM69.9838 40.467C68.4238 40.467 67.2538 39.31 67.2538 37.607C67.2538 35.904 68.4238 34.747 69.9838 34.747C71.5438 34.747 72.7138 35.904 72.7138 37.607C72.7138 39.31 71.5438 40.467 69.9838 40.467ZM81.0743 34.214V37.828C81.0743 39.44 80.1253 40.467 78.5913 40.467C77.1743 40.467 76.3553 39.661 76.3553 38.127V34.214H75.7053V38.179C75.7053 40.077 76.8103 41.052 78.5393 41.052C79.7353 41.052 80.6583 40.493 81.1003 39.544V41H81.7243V34.214H81.0743ZM85.4936 35.696V34.214H84.8696V41H85.5196V37.464C85.5196 35.787 86.4166 34.786 87.9246 34.786C87.9766 34.786 88.0286 34.799 88.0806 34.799V34.162C86.8066 34.162 85.9096 34.708 85.4936 35.696ZM96.7957 41.052C97.8747 41.052 98.8107 40.623 99.3697 39.804L98.8887 39.453C98.3947 40.142 97.6407 40.467 96.7957 40.467C95.1967 40.467 94.0267 39.323 94.0267 37.607C94.0267 35.891 95.1967 34.747 96.7957 34.747C97.6407 34.747 98.3947 35.072 98.8887 35.761L99.3697 35.41C98.8107 34.578 97.8747 34.162 96.7957 34.162C94.8067 34.162 93.3637 35.579 93.3637 37.607C93.3637 39.622 94.8067 41.052 96.7957 41.052ZM104.243 41.052C106.193 41.052 107.636 39.622 107.636 37.607C107.636 35.592 106.193 34.162 104.243 34.162C102.293 34.162 100.85 35.592 100.85 37.607C100.85 39.622 102.293 41.052 104.243 41.052ZM104.243 40.467C102.683 40.467 101.513 39.31 101.513 37.607C101.513 35.904 102.683 34.747 104.243 34.747C105.803 34.747 106.973 35.904 106.973 37.607C106.973 39.31 105.803 40.467 104.243 40.467ZM110.043 41H110.693V31.354H110.043V41ZM113.823 41H114.473V31.354H113.823V41ZM123.348 37.581C123.348 35.566 121.97 34.162 120.111 34.162C118.252 34.162 116.861 35.592 116.861 37.607C116.861 39.622 118.304 41.052 120.358 41.052C121.385 41.052 122.321 40.675 122.919 39.947L122.542 39.518C122.022 40.155 121.229 40.467 120.371 40.467C118.746 40.467 117.563 39.375 117.498 37.763H123.335C123.335 37.698 123.348 37.633 123.348 37.581ZM120.111 34.734C121.554 34.734 122.62 35.787 122.711 37.256H117.511C117.615 35.774 118.668 34.734 120.111 34.734ZM131.235 34.214V35.748C130.689 34.734 129.636 34.162 128.388 34.162C126.464 34.162 125.008 35.514 125.008 37.451C125.008 39.388 126.464 40.753 128.388 40.753C129.61 40.753 130.65 40.194 131.209 39.206V40.35C131.209 42.157 130.364 42.989 128.557 42.989C127.465 42.989 126.49 42.625 125.814 42.001L125.463 42.495C126.152 43.184 127.335 43.574 128.57 43.574C130.754 43.574 131.859 42.547 131.859 40.272V34.214H131.235ZM128.44 40.168C126.841 40.168 125.671 39.05 125.671 37.451C125.671 35.852 126.841 34.747 128.44 34.747C130.052 34.747 131.222 35.852 131.222 37.451C131.222 39.05 130.052 40.168 128.44 40.168ZM140.746 37.581C140.746 35.566 139.368 34.162 137.509 34.162C135.65 34.162 134.259 35.592 134.259 37.607C134.259 39.622 135.702 41.052 137.756 41.052C138.783 41.052 139.719 40.675 140.317 39.947L139.94 39.518C139.42 40.155 138.627 40.467 137.769 40.467C136.144 40.467 134.961 39.375 134.896 37.763H140.733C140.733 37.698 140.746 37.633 140.746 37.581ZM137.509 34.734C138.952 34.734 140.018 35.787 140.109 37.256H134.909C135.013 35.774 136.066 34.734 137.509 34.734ZM152.362 34.214V35.748C151.816 34.734 150.763 34.162 149.515 34.162C147.591 34.162 146.135 35.514 146.135 37.451C146.135 39.388 147.591 40.753 149.515 40.753C150.737 40.753 151.777 40.194 152.336 39.206V40.35C152.336 42.157 151.491 42.989 149.684 42.989C148.592 42.989 147.617 42.625 146.941 42.001L146.59 42.495C147.279 43.184 148.462 43.574 149.697 43.574C151.881 43.574 152.986 42.547 152.986 40.272V34.214H152.362ZM149.567 40.168C147.968 40.168 146.798 39.05 146.798 37.451C146.798 35.852 147.968 34.747 149.567 34.747C151.179 34.747 152.349 35.852 152.349 37.451C152.349 39.05 151.179 40.168 149.567 40.168ZM161.418 34.214V37.828C161.418 39.44 160.469 40.467 158.935 40.467C157.518 40.467 156.699 39.661 156.699 38.127V34.214H156.049V38.179C156.049 40.077 157.154 41.052 158.883 41.052C160.079 41.052 161.002 40.493 161.444 39.544V41H162.068V34.214H161.418ZM165.539 32.563C165.838 32.563 166.072 32.329 166.072 32.03C166.072 31.744 165.838 31.51 165.539 31.51C165.24 31.51 165.006 31.757 165.006 32.043C165.006 32.329 165.24 32.563 165.539 32.563ZM165.214 41H165.864V34.214H165.214V41ZM174.375 31.354V35.787C173.829 34.76 172.815 34.162 171.606 34.162C169.695 34.162 168.252 35.566 168.252 37.607C168.252 39.635 169.695 41.052 171.606 41.052C172.828 41.052 173.855 40.454 174.388 39.401V41H175.025V31.354H174.375ZM171.645 40.467C170.085 40.467 168.915 39.31 168.915 37.607C168.915 35.904 170.085 34.747 171.645 34.747C173.205 34.747 174.375 35.904 174.375 37.607C174.375 39.31 173.205 40.467 171.645 40.467ZM183.902 37.581C183.902 35.566 182.524 34.162 180.665 34.162C178.806 34.162 177.415 35.592 177.415 37.607C177.415 39.622 178.858 41.052 180.912 41.052C181.939 41.052 182.875 40.675 183.473 39.947L183.096 39.518C182.576 40.155 181.783 40.467 180.925 40.467C179.3 40.467 178.117 39.375 178.052 37.763H183.889C183.889 37.698 183.902 37.633 183.902 37.581ZM180.665 34.734C182.108 34.734 183.174 35.787 183.265 37.256H178.065C178.169 35.774 179.222 34.734 180.665 34.734Z" fill="#222529"/>
<g clip-path="url(#clip0_288_375)">
<path d="M23.9746 22.0103C29.8486 22.0103 34.6104 17.2485 34.6104 11.3745C34.6104 5.50055 29.8486 0.73877 23.9746 0.73877C18.1007 0.73877 13.3389 5.50055 13.3389 11.3745C13.3389 17.2485 18.1007 22.0103 23.9746 22.0103Z" stroke="#222529" stroke-width="0.951713" stroke-miterlimit="10"/>
<path d="M24.9302 10.3068C24.9302 8.02535 25.8365 5.83734 27.4497 4.22413C29.0629 2.61089 31.2509 1.70459 33.5324 1.70459C35.8138 1.70459 38.0019 2.61089 39.6152 4.22413C41.2285 5.83734 42.1348 8.02535 42.1348 10.3068" stroke="#222529" stroke-width="0.951713" stroke-miterlimit="10"/>
<path d="M7.72848 10.3067C7.71396 9.16796 7.9257 8.0376 8.35145 6.98127C8.77719 5.92491 9.40844 4.96365 10.2086 4.15322C11.0088 3.34276 11.9619 2.69927 13.0127 2.26008C14.0636 1.82088 15.1911 1.59473 16.33 1.59473C17.4689 1.59473 18.5965 1.82088 19.6473 2.26008C20.6981 2.69927 21.6512 3.34276 22.4514 4.15322C23.2516 4.96365 23.8828 5.92491 24.3086 6.98127C24.7343 8.0376 24.9461 9.16796 24.9315 10.3067" stroke="#222529" stroke-width="0.951713" stroke-miterlimit="10"/>
<path d="M21.2137 21.1572C20.5844 28.826 15.6638 38.4121 2.24335 42.7512" stroke="#222529" stroke-width="0.951713" stroke-miterlimit="10"/>
<path d="M33.1338 16.7852C32.3139 28.4173 24.4096 41.339 4.00281 42.0704" stroke="#222529" stroke-width="0.951713" stroke-miterlimit="10"/>
<path d="M2.2932 43.6141C-1.38706 33.2293 1.38925 20.9006 11.4798 13.5232C12.0741 13.0888 12.73 12.6431 13.3746 12.2451" stroke="#222529" stroke-width="0.951713" stroke-miterlimit="10"/>
<path d="M19.0902 11.3752C19.6971 11.3752 20.189 10.8833 20.189 10.2765C20.189 9.66964 19.6971 9.17773 19.0902 9.17773C18.4834 9.17773 17.9915 9.66964 17.9915 10.2765C17.9915 10.8833 18.4834 11.3752 19.0902 11.3752Z" stroke="#222529" stroke-width="0.0793094" stroke-miterlimit="10"/>
<path d="M30.3797 11.3752C30.9866 11.3752 31.4785 10.8833 31.4785 10.2765C31.4785 9.66964 30.9866 9.17773 30.3797 9.17773C29.7729 9.17773 29.281 9.66964 29.281 10.2765C29.281 10.8833 29.7729 11.3752 30.3797 11.3752Z" fill="#222529"/>
<path d="M19.0902 11.3752C19.6971 11.3752 20.189 10.8833 20.189 10.2765C20.189 9.66964 19.6971 9.17773 19.0902 9.17773C18.4834 9.17773 17.9915 9.66964 17.9915 10.2765C17.9915 10.8833 18.4834 11.3752 19.0902 11.3752Z" fill="#222529"/>
<path d="M24.9302 13.1227V10.3071" stroke="#222529" stroke-width="0.0793094" stroke-miterlimit="10"/>
<path d="M24.4069 10.2144L24.4461 11.0615C24.5749 13.809 25.2626 13.8231 25.3949 11.0813L25.4358 10.2214L24.4069 10.2144Z" fill="#222529"/>
</g>
<defs>
<clipPath id="clip0_288_375">
<rect width="42.874" height="43.9828" fill="white"/>
</clipPath>
</defs>
</svg>
