<svg width="150" height="38" viewBox="0 0 150 38" fill="none" xmlns="http://www.w3.org/2000/svg">
<path d="M15.0231 16.632C13.8751 17.248 12.7271 17.472 11.4951 17.472C7.74306 17.472 5.13906 14.868 5.13906 11.2C5.13906 7.476 7.74306 4.928 11.5511 4.928C13.5391 4.928 15.1911 5.628 16.6191 7.14L19.5311 4.452C17.6271 2.24 14.7711 1.064 11.3271 1.064C5.08306 1.064 0.547058 5.292 0.547058 11.2C0.547058 17.108 5.08306 21.336 11.2431 21.336C14.0431 21.336 17.0111 20.468 19.1671 18.844V10.892H15.0231V16.632Z" fill="#FAFAFA"/>
<path d="M23.0726 21H27.4406V0.223999H23.0726V21Z" fill="#FAFAFA"/>
<path d="M38.6625 21.224C43.4505 21.224 46.9225 18.004 46.9225 13.468C46.9225 8.932 43.4505 5.712 38.6625 5.712C33.8745 5.712 30.3745 8.932 30.3745 13.468C30.3745 18.004 33.8745 21.224 38.6625 21.224ZM38.6625 17.64C36.4785 17.64 34.7985 16.072 34.7985 13.468C34.7985 10.864 36.4785 9.296 38.6625 9.296C40.8465 9.296 42.4985 10.864 42.4985 13.468C42.4985 16.072 40.8465 17.64 38.6625 17.64Z" fill="#FAFAFA"/>
<path d="M58.7462 5.712C56.8702 5.712 55.3302 6.3 54.2102 7.532V0.223999H49.8422V21H54.0142V19.264C55.1062 20.58 56.7302 21.224 58.7462 21.224C62.9742 21.224 66.2502 18.2 66.2502 13.468C66.2502 8.736 62.9742 5.712 58.7462 5.712ZM57.9902 17.64C55.8062 17.64 54.1542 16.072 54.1542 13.468C54.1542 10.864 55.8062 9.296 57.9902 9.296C60.1742 9.296 61.8262 10.864 61.8262 13.468C61.8262 16.072 60.1742 17.64 57.9902 17.64Z" fill="#FAFAFA"/>
<path d="M74.2422 21.224C78.7502 21.224 81.3542 19.236 81.3542 16.436C81.3542 10.5 72.2542 12.992 72.2542 10.416C72.2542 9.632 73.0942 9.016 75.0542 9.016C76.4262 9.016 77.9102 9.296 79.3942 10.136L80.8502 7.028C79.4222 6.188 77.1262 5.712 75.0542 5.712C70.6582 5.712 68.0822 7.728 68.0822 10.584C68.0822 16.604 77.1822 14.084 77.1822 16.548C77.1822 17.388 76.4262 17.92 74.4102 17.92C72.5622 17.92 70.5182 17.332 69.1742 16.464L67.7182 19.6C69.1182 20.524 71.6942 21.224 74.2422 21.224Z" fill="#FAFAFA"/>
<path d="M92.5892 17.192C92.1132 17.556 91.4692 17.752 90.8252 17.752C89.6492 17.752 88.9492 17.052 88.9492 15.764V9.632H92.7012V6.272H88.9492V2.604H84.5812V6.272H82.2572V9.632H84.5812V15.82C84.5812 19.404 86.6532 21.224 90.2092 21.224C91.5532 21.224 92.8692 20.916 93.7652 20.272L92.5892 17.192Z" fill="#FAFAFA"/>
<path d="M107.025 5.936V13.384C107.025 16.156 105.569 17.444 103.553 17.444C101.621 17.444 100.501 16.324 100.501 13.804V5.936H96.1331V14.448C96.1331 19.096 98.7932 21.224 102.573 21.224C104.421 21.224 106.101 20.524 107.249 19.208V21H111.393V5.936H107.025Z" fill="#FAFAFA"/>
<path d="M126.416 0.223999V7.532C125.324 6.3 123.756 5.712 121.908 5.712C117.652 5.712 114.376 8.736 114.376 13.468C114.376 18.2 117.652 21.224 121.908 21.224C123.924 21.224 125.52 20.58 126.612 19.264V21H130.784V0.223999H126.416ZM122.664 17.64C120.48 17.64 118.8 16.072 118.8 13.468C118.8 10.864 120.48 9.296 122.664 9.296C124.82 9.296 126.5 10.864 126.5 13.468C126.5 16.072 124.82 17.64 122.664 17.64Z" fill="#FAFAFA"/>
<path d="M145.579 5.936L141.323 16.156L137.095 5.936H132.587L139.111 21.112L139.055 21.252C138.467 22.596 137.795 23.128 136.591 23.128C135.723 23.128 134.799 22.764 134.127 22.176L132.531 25.284C133.511 26.152 135.191 26.656 136.731 26.656C139.447 26.656 141.519 25.564 142.975 21.924L149.779 5.936H145.579Z" fill="#FAFAFA"/>
<path d="M10.3993 25.9H9.71028L6.42128 31.256L3.13228 25.9H2.40428L6.07028 31.867V35H6.73328V31.867L10.3993 25.9Z" fill="#FAFAFA"/>
<path d="M14.1099 35.052C16.0599 35.052 17.5029 33.622 17.5029 31.607C17.5029 29.592 16.0599 28.162 14.1099 28.162C12.1599 28.162 10.7169 29.592 10.7169 31.607C10.7169 33.622 12.1599 35.052 14.1099 35.052ZM14.1099 34.467C12.5499 34.467 11.3799 33.31 11.3799 31.607C11.3799 29.904 12.5499 28.747 14.1099 28.747C15.6699 28.747 16.8399 29.904 16.8399 31.607C16.8399 33.31 15.6699 34.467 14.1099 34.467Z" fill="#FAFAFA"/>
<path d="M25.2004 28.214V31.828C25.2004 33.44 24.2514 34.467 22.7174 34.467C21.3004 34.467 20.4814 33.661 20.4814 32.127V28.214H19.8314V32.179C19.8314 34.077 20.9364 35.052 22.6654 35.052C23.8614 35.052 24.7844 34.493 25.2264 33.544V35H25.8504V28.214H25.2004Z" fill="#FAFAFA"/>
<path d="M29.6197 29.696V28.214H28.9957V35H29.6457V31.464C29.6457 29.787 30.5427 28.786 32.0507 28.786C32.1027 28.786 32.1547 28.799 32.2067 28.799V28.162C30.9327 28.162 30.0357 28.708 29.6197 29.696Z" fill="#FAFAFA"/>
<path d="M40.9218 35.052C42.0008 35.052 42.9368 34.623 43.4958 33.804L43.0148 33.453C42.5208 34.142 41.7668 34.467 40.9218 34.467C39.3228 34.467 38.1528 33.323 38.1528 31.607C38.1528 29.891 39.3228 28.747 40.9218 28.747C41.7668 28.747 42.5208 29.072 43.0148 29.761L43.4958 29.41C42.9368 28.578 42.0008 28.162 40.9218 28.162C38.9328 28.162 37.4898 29.579 37.4898 31.607C37.4898 33.622 38.9328 35.052 40.9218 35.052Z" fill="#FAFAFA"/>
<path d="M48.3694 35.052C50.3194 35.052 51.7624 33.622 51.7624 31.607C51.7624 29.592 50.3194 28.162 48.3694 28.162C46.4194 28.162 44.9764 29.592 44.9764 31.607C44.9764 33.622 46.4194 35.052 48.3694 35.052ZM48.3694 34.467C46.8094 34.467 45.6394 33.31 45.6394 31.607C45.6394 29.904 46.8094 28.747 48.3694 28.747C49.9294 28.747 51.0994 29.904 51.0994 31.607C51.0994 33.31 49.9294 34.467 48.3694 34.467Z" fill="#FAFAFA"/>
<path d="M54.169 35H54.819V25.354H54.169V35Z" fill="#FAFAFA"/>
<path d="M57.9486 35H58.5986V25.354H57.9486V35Z" fill="#FAFAFA"/>
<path d="M67.4743 31.581C67.4743 29.566 66.0963 28.162 64.2373 28.162C62.3783 28.162 60.9873 29.592 60.9873 31.607C60.9873 33.622 62.4303 35.052 64.4843 35.052C65.5113 35.052 66.4473 34.675 67.0452 33.947L66.6683 33.518C66.1483 34.155 65.3553 34.467 64.4973 34.467C62.8723 34.467 61.6893 33.375 61.6243 31.763H67.4613C67.4613 31.698 67.4743 31.633 67.4743 31.581ZM64.2373 28.734C65.6803 28.734 66.7462 29.787 66.8372 31.256H61.6373C61.7413 29.774 62.7943 28.734 64.2373 28.734Z" fill="#FAFAFA"/>
<path d="M75.3611 28.214V29.748C74.8151 28.734 73.7621 28.162 72.5141 28.162C70.5901 28.162 69.1341 29.514 69.1341 31.451C69.1341 33.388 70.5901 34.753 72.5141 34.753C73.7361 34.753 74.7761 34.194 75.3351 33.206V34.35C75.3351 36.157 74.4901 36.989 72.6831 36.989C71.5911 36.989 70.6161 36.625 69.9401 36.001L69.5891 36.495C70.2781 37.184 71.4611 37.574 72.6961 37.574C74.8801 37.574 75.9851 36.547 75.9851 34.272V28.214H75.3611ZM72.5661 34.168C70.9671 34.168 69.7971 33.05 69.7971 31.451C69.7971 29.852 70.9671 28.747 72.5661 28.747C74.1781 28.747 75.3481 29.852 75.3481 31.451C75.3481 33.05 74.1781 34.168 72.5661 34.168Z" fill="#FAFAFA"/>
<path d="M84.8724 31.581C84.8724 29.566 83.4944 28.162 81.6354 28.162C79.7764 28.162 78.3854 29.592 78.3854 31.607C78.3854 33.622 79.8284 35.052 81.8824 35.052C82.9094 35.052 83.8454 34.675 84.4434 33.947L84.0664 33.518C83.5464 34.155 82.7534 34.467 81.8954 34.467C80.2704 34.467 79.0874 33.375 79.0224 31.763H84.8594C84.8594 31.698 84.8724 31.633 84.8724 31.581ZM81.6354 28.734C83.0784 28.734 84.1444 29.787 84.2354 31.256H79.0354C79.1394 29.774 80.1924 28.734 81.6354 28.734Z" fill="#FAFAFA"/>
<path d="M96.4881 28.214V29.748C95.9421 28.734 94.8891 28.162 93.6411 28.162C91.7171 28.162 90.2611 29.514 90.2611 31.451C90.2611 33.388 91.7171 34.753 93.6411 34.753C94.8631 34.753 95.9031 34.194 96.4621 33.206V34.35C96.4621 36.157 95.6171 36.989 93.8101 36.989C92.7181 36.989 91.7431 36.625 91.0671 36.001L90.7161 36.495C91.4051 37.184 92.5881 37.574 93.8231 37.574C96.0071 37.574 97.1121 36.547 97.1121 34.272V28.214H96.4881ZM93.6931 34.168C92.0941 34.168 90.9241 33.05 90.9241 31.451C90.9241 29.852 92.0941 28.747 93.6931 28.747C95.3051 28.747 96.4751 29.852 96.4751 31.451C96.4751 33.05 95.3051 34.168 93.6931 34.168Z" fill="#FAFAFA"/>
<path d="M105.544 28.214V31.828C105.544 33.44 104.595 34.467 103.061 34.467C101.644 34.467 100.825 33.661 100.825 32.127V28.214H100.175V32.179C100.175 34.077 101.28 35.052 103.009 35.052C104.205 35.052 105.128 34.493 105.57 33.544V35H106.194V28.214H105.544Z" fill="#FAFAFA"/>
<path d="M109.665 26.563C109.964 26.563 110.198 26.329 110.198 26.03C110.198 25.744 109.964 25.51 109.665 25.51C109.366 25.51 109.132 25.757 109.132 26.043C109.132 26.329 109.366 26.563 109.665 26.563ZM109.34 35H109.99V28.214H109.34V35Z" fill="#FAFAFA"/>
<path d="M118.501 25.354V29.787C117.955 28.76 116.941 28.162 115.732 28.162C113.821 28.162 112.378 29.566 112.378 31.607C112.378 33.635 113.821 35.052 115.732 35.052C116.954 35.052 117.981 34.454 118.514 33.401V35H119.151V25.354H118.501ZM115.771 34.467C114.211 34.467 113.041 33.31 113.041 31.607C113.041 29.904 114.211 28.747 115.771 28.747C117.331 28.747 118.501 29.904 118.501 31.607C118.501 33.31 117.331 34.467 115.771 34.467Z" fill="#FAFAFA"/>
<path d="M128.028 31.581C128.028 29.566 126.65 28.162 124.791 28.162C122.932 28.162 121.541 29.592 121.541 31.607C121.541 33.622 122.984 35.052 125.038 35.052C126.065 35.052 127.001 34.675 127.599 33.947L127.222 33.518C126.702 34.155 125.909 34.467 125.051 34.467C123.426 34.467 122.243 33.375 122.178 31.763H128.015C128.015 31.698 128.028 31.633 128.028 31.581ZM124.791 28.734C126.234 28.734 127.3 29.787 127.391 31.256H122.191C122.295 29.774 123.348 28.734 124.791 28.734Z" fill="#FAFAFA"/>
</svg>
