<svg  viewBox="0 0 56 46" fill="none" xmlns="http://www.w3.org/2000/svg">
<path fill-rule="evenodd" clip-rule="evenodd" d="M3.84971 19.8027C18.8821 13.311 28.906 9.03134 33.9215 6.9636C48.2417 1.05978 51.2174 0.0342256 53.1568 0.000361071C53.5834 -0.00708705 54.5372 0.0976979 55.155 0.594597C55.6767 1.01417 55.8202 1.58095 55.8889 1.97875C55.9576 2.37655 56.0431 3.28275 55.9751 3.99082C55.1991 12.0727 51.8413 31.6853 50.133 40.7371C49.4102 44.5673 47.9869 45.8515 46.609 45.9772C43.6145 46.2503 41.3406 44.0157 38.4403 42.1312C33.9019 39.1824 31.3379 37.3468 26.9326 34.4693C21.8415 31.1439 25.1418 29.3162 28.0433 26.3292C28.8026 25.5475 41.9964 13.6524 42.2518 12.5734C42.2837 12.4384 42.3133 11.9354 42.0118 11.6697C41.7103 11.4041 41.2653 11.4949 40.9442 11.5672C40.489 11.6696 33.2388 16.4195 19.1936 25.8169C17.1357 27.2176 15.2717 27.9 13.6016 27.8642C11.7604 27.8248 8.21877 26.8324 5.58593 25.9841C2.35665 24.9436 -0.209924 24.3935 0.0135665 22.6265C0.129974 21.7061 1.40869 20.7649 3.84971 19.8027Z" fill="#222529"/>
</svg>
